<svg width="100" height="40" viewBox="0 0 100 40" fill="none" xmlns="http://www.w3.org/2000/svg">
<path d="M79.3818 29.1734V15.7978H82.0619V17.6847C82.8551 16.2929 84.3946 15.4505 86.3061 15.4505C86.9907 15.4327 87.6721 15.5507 88.3109 15.7976C88.9498 16.0445 89.5334 16.4154 90.0281 16.889C91.0454 17.8571 91.5676 19.2218 91.5676 21.0347V29.1635H88.8112V21.8033C88.8112 19.34 87.5205 17.9827 85.609 17.9827C83.5472 17.9827 82.1087 19.5691 82.1087 21.8525V29.1734H79.3818Z" fill="white"/>
<path d="M77.197 23.5394H66.7478C67.1443 25.6258 68.61 27.0397 71.1817 27.0397C72.8025 27.0108 74.3799 26.511 75.7215 25.6011L76.8644 27.6112C75.1758 28.8081 73.1603 29.4573 71.0905 29.4709C66.0777 29.4709 63.9199 25.9731 63.9199 22.4481C63.9199 20.4381 64.5382 18.7754 65.8043 17.46C67.0705 16.1446 68.7332 15.4746 70.7309 15.4746C72.6424 15.4746 74.2312 16.0707 75.4456 17.2851C76.66 18.4995 77.2832 20.1401 77.2832 22.2117C77.2875 22.6558 77.2587 23.0996 77.197 23.5394ZM66.7478 21.3076H74.5391C74.3174 19.1966 72.7532 17.827 70.7432 17.827C68.6839 17.827 67.1493 19.2213 66.7478 21.3076Z" fill="white"/>
<path d="M59.0033 10.3613H61.7572V29.1734H59.0476V27.3136C58.5244 28.0059 57.8448 28.5646 57.0644 28.9439C56.2839 29.3233 55.4247 29.5125 54.5571 29.496C53.6618 29.5187 52.7718 29.3512 51.946 29.0047C51.1202 28.6583 50.3771 28.1406 49.766 27.486C48.4972 26.1297 47.8109 24.33 47.8545 22.4733C47.8112 20.6312 48.4983 18.8469 49.766 17.5098C50.3674 16.8477 51.1045 16.3232 51.9271 15.9721C52.7497 15.621 53.6383 15.4514 54.5324 15.4751C56.2937 15.4751 57.7815 16.1944 58.9983 17.66L59.0033 10.3613ZM58.0106 19.3055C57.6081 18.8893 57.1261 18.5583 56.5931 18.3323C56.0601 18.1062 55.487 17.9897 54.9081 17.9897C54.3291 17.9897 53.7561 18.1062 53.2231 18.3323C52.6901 18.5583 52.208 18.8893 51.8056 19.3055C51.0107 20.1686 50.5838 21.3077 50.6158 22.4806C50.5834 23.6699 51.0093 24.8261 51.8056 25.71C52.2121 26.119 52.6956 26.4435 53.228 26.665C53.7604 26.8864 54.3314 27.0004 54.9081 27.0004C55.4847 27.0004 56.0557 26.8864 56.5882 26.665C57.1206 26.4435 57.604 26.119 58.0106 25.71C58.8078 24.8275 59.2347 23.672 59.2028 22.4831C59.2358 21.3088 58.8079 20.1682 58.0106 19.3055Z" fill="white"/>
<path d="M33.7129 29.173V15.7975H36.3929V17.6843C37.1886 16.2926 38.7256 15.4501 40.6372 15.4501C41.3219 15.4316 42.0035 15.5491 42.6424 15.7961C43.2814 16.043 43.8649 16.4144 44.3592 16.8887C45.379 17.8568 45.8987 19.2214 45.8987 21.0344V29.1632H43.1448V21.8029C43.1448 19.3397 41.854 17.9824 39.9425 17.9824C37.8832 17.9824 36.4422 19.5687 36.4422 21.8522V29.173H33.7129Z" fill="white"/>
<path d="M27.5813 12.1741C27.5828 11.9308 27.633 11.6903 27.7288 11.4667C27.8246 11.2431 27.9642 11.0408 28.1393 10.8719C28.3144 10.703 28.5215 10.5708 28.7484 10.4831C28.9754 10.3954 29.2176 10.3539 29.4607 10.3612C29.6996 10.3585 29.9365 10.4036 30.1576 10.4938C30.3788 10.584 30.5797 10.7174 30.7486 10.8863C30.9175 11.0552 31.0509 11.2561 31.1411 11.4772C31.2313 11.6984 31.2763 11.9353 31.2737 12.1741C31.2813 12.4166 31.24 12.6581 31.1522 12.8842C31.0644 13.1104 30.932 13.3165 30.7628 13.4903C30.5935 13.6641 30.391 13.8021 30.1673 13.8959C29.9436 13.9897 29.7033 14.0375 29.4607 14.0364C29.2137 14.0424 28.9681 13.9984 28.7385 13.9072C28.5089 13.8159 28.3001 13.6793 28.1246 13.5054C27.949 13.3315 27.8105 13.1239 27.7171 12.8952C27.6237 12.6664 27.5775 12.4212 27.5813 12.1741ZM30.7835 29.1707H28.0542V15.7976H30.7835V29.1707Z" fill="white"/>
<path d="M7.47864 29.1731L1.24902 10.834H4.33551L8.52307 23.9115L13.1639 10.834H14.6813L19.4157 23.9115L23.549 10.834H26.6257L20.4084 29.1731H18.4969L13.9571 16.0216L9.43941 29.1731H7.47864Z" fill="white"/>
</svg>
